<svg width="32" height="32" viewBox="0 0 32 32" fill="none" xmlns="http://www.w3.org/2000/svg">
<path d="M17.3633 21.5303C17.0704 21.823 16.5956 21.8231 16.3028 21.5303C16.0101 21.2374 16.0101 20.7626 16.3028 20.4697L20.0225 16.75L10.1661 16.75L10.0899 16.7461C9.71178 16.7076 9.41607 16.3883 9.41607 16C9.41607 15.6117 9.71178 15.2924 10.0899 15.2539L10.1661 15.25L20.0225 15.25L16.3028 11.5303L16.251 11.4736C16.0109 11.1791 16.0284 10.7443 16.3028 10.4697C16.5773 10.1952 17.0121 10.1778 17.3067 10.418L17.3633 10.4697L22.3633 15.4697C22.6562 15.7626 22.6562 16.2374 22.3633 16.5303L17.3633 21.5303Z" fill="white"/>
</svg>
