<svg width="56" height="56" viewBox="0 0 56 56" fill="none" xmlns="http://www.w3.org/2000/svg">
<rect width="56" height="56" rx="28" transform="matrix(-1 0 0 1 56 0)" fill="#F9C74F"/>
<path d="M26.6367 33.5303C26.9296 33.823 27.4044 33.8231 27.6973 33.5303C27.9899 33.2374 27.9899 32.7626 27.6973 32.4697L23.9775 28.75H33.834L33.9102 28.7461C34.2883 28.7076 34.584 28.3883 34.584 28C34.584 27.6117 34.2883 27.2924 33.9102 27.2539L33.834 27.25H23.9775L27.6973 23.5303L27.749 23.4736C27.9892 23.1791 27.9717 22.7443 27.6973 22.4697C27.4227 22.1952 26.9879 22.1778 26.6934 22.418L26.6367 22.4697L21.6367 27.4697C21.3438 27.7626 21.3438 28.2374 21.6367 28.5303L26.6367 33.5303Z" fill="#363537"/>
</svg>
