<svg width="12" height="12" viewBox="0 0 12 12" fill="none" xmlns="http://www.w3.org/2000/svg">
<path d="M7.47999 5.24743C7.64347 5.08396 7.64347 4.81891 7.47999 4.65544C7.31652 4.49196 7.05147 4.49196 6.88799 4.65544L6 5.54343L5.11201 4.65544C4.94853 4.49196 4.68348 4.49196 4.52001 4.65544C4.35653 4.81891 4.35653 5.08396 4.52001 5.24743L5.408 6.13543L4.52001 7.02342C4.35653 7.1869 4.35653 7.45194 4.52001 7.61542C4.68348 7.77889 4.94853 7.77889 5.11201 7.61542L6 6.72742L6.888 7.61542C7.05147 7.77889 7.31652 7.77889 7.47999 7.61542C7.64347 7.45194 7.64347 7.1869 7.47999 7.02342L6.592 6.13543L7.47999 5.24743Z" fill="#EF2D56"/>
<path fill-rule="evenodd" clip-rule="evenodd" d="M6 0C2.68629 0 0 2.68629 0 6C0 9.31371 2.68629 12 6 12C9.31371 12 12 9.31371 12 6C12 2.68629 9.31371 0 6 0ZM0.837209 6C0.837209 3.14867 3.14867 0.837209 6 0.837209C8.85133 0.837209 11.1628 3.14867 11.1628 6C11.1628 8.85133 8.85133 11.1628 6 11.1628C3.14867 11.1628 0.837209 8.85133 0.837209 6Z" fill="#EF2D56"/>
</svg>
