<svg width="12" height="12" viewBox="0 0 12 12" fill="none" xmlns="http://www.w3.org/2000/svg">
<path d="M6.55814 8.23256C6.55814 8.54081 6.30825 8.7907 6 8.7907C5.69175 8.7907 5.44186 8.54081 5.44186 8.23256C5.44186 7.92431 5.69175 7.67442 6 7.67442C6.30825 7.67442 6.55814 7.92431 6.55814 8.23256Z" fill="#ED7D3A"/>
<path d="M6.4186 3.2093C6.4186 2.97811 6.23119 2.7907 6 2.7907C5.76881 2.7907 5.5814 2.97811 5.5814 3.2093V6.55814C5.5814 6.78933 5.76881 6.97674 6 6.97674C6.23119 6.97674 6.4186 6.78933 6.4186 6.55814V3.2093Z" fill="#ED7D3A"/>
<path fill-rule="evenodd" clip-rule="evenodd" d="M6 0C2.68629 0 0 2.68629 0 6C0 9.31371 2.68629 12 6 12C9.31371 12 12 9.31371 12 6C12 2.68629 9.31371 0 6 0ZM0.837209 6C0.837209 3.14867 3.14867 0.837209 6 0.837209C8.85133 0.837209 11.1628 3.14867 11.1628 6C11.1628 8.85133 8.85133 11.1628 6 11.1628C3.14867 11.1628 0.837209 8.85133 0.837209 6Z" fill="#ED7D3A"/>
</svg>
